# xmcd CD database file
#
# Track frame offsets:
#	150
#	23515
#	45975
#	69287
#
# Disc length: 1223 seconds
#
# Revision: 0
# Processed by: cddbd v1.5.1PL2 Copyright (c) Steve Scherf et al.
# Submitted via: CDex 1.51
#
DISCID=2104c504
DTITLE=井上昌己 - 恋はLiberty
DYEAR=1994
DGENRE=JPop
TTITLE0=恋はLiberty -Single Version-
TTITLE1=Wish
TTITLE2=恋はLiberty -instrumental-
TTITLE3=Wish -instrumental-
EXTD=YEAR: 1994
EXTT0=
EXTT1=
EXTT2=
EXTT3=
PLAYORDER=
